<svg xmlns="http://www.w3.org/2000/svg" aria-hidden="true" style="position:absolute;width:0;height:0;overflow:hidden">
  <defs>
    <symbol id="icon-checkbox" viewBox="0 0 720 32">
      <path fill="none" stroke="#2e2f42" stroke-width="2" d="M4 1h24a3 3 0 0 1 3 3v24a3 3 0 0 1-3 3H4a3 3 0 0 1-3-3V4a3 3 0 0 1 3-3z" style="stroke:var(--color1, #2e2f42)"/>
      <path fill="#8e8f99" d="M52.406 6.938v17.063h-2.262V6.938h2.262zm19.135 14.894v-6.527c0-.5-.101-.934-.305-1.301-.195-.375-.492-.664-.891-.867s-.891-.305-1.477-.305c-.547 0-1.027.094-1.441.281a2.52 2.52 0 0 0-.961.738c-.226.305-.34.633-.34.984h-2.168c0-.453.117-.902.352-1.348s.57-.848 1.008-1.207a5.043 5.043 0 0 1 1.594-.867c.625-.219 1.32-.328 2.086-.328.922 0 1.734.156 2.437.469a3.651 3.651 0 0 1 1.664 1.418c.406.625.609 1.41.609 2.355v5.906c0 .422.035.871.106 1.348.078.477.191.887.34 1.23v.188h-2.262c-.109-.25-.195-.582-.258-.996a8.113 8.113 0 0 1-.094-1.172zm.375-5.519.024 1.523h-2.191c-.617 0-1.168.051-1.652.152-.484.094-.891.238-1.219.434s-.578.441-.75.738a1.956 1.956 0 0 0-.258 1.019c0 .399.09.762.27 1.09s.449.59.809.785c.367.188.816.281 1.348.281.664 0 1.25-.141 1.758-.422s.91-.625 1.207-1.031c.305-.406.469-.801.492-1.184l.926 1.043c-.055.328-.203.691-.445 1.09s-.567.781-.973 1.148c-.398.359-.875.66-1.43.902-.547.234-1.164.352-1.852.352-.859 0-1.613-.168-2.262-.504-.641-.336-1.141-.785-1.5-1.348a3.571 3.571 0 0 1-.527-1.91c0-.68.133-1.277.398-1.793a3.47 3.47 0 0 1 1.148-1.301c.5-.352 1.102-.617 1.805-.797s1.488-.27 2.356-.27h2.519zm11.237 6.14c.516 0 .992-.106 1.43-.316s.797-.5 1.078-.867c.281-.375.441-.801.481-1.277h2.062c-.039.75-.293 1.449-.762 2.098a5.203 5.203 0 0 1-1.816 1.559 5.267 5.267 0 0 1-2.473.586c-.953 0-1.785-.168-2.496-.504a4.952 4.952 0 0 1-1.758-1.383 6.17 6.17 0 0 1-1.043-2.016 8.492 8.492 0 0 1-.34-2.426v-.492c0-.852.113-1.656.34-2.414a6.146 6.146 0 0 1 1.043-2.027 4.952 4.952 0 0 1 1.758-1.383c.711-.336 1.543-.504 2.496-.504.992 0 1.859.203 2.602.609a4.468 4.468 0 0 1 1.746 1.641c.43.688.664 1.469.703 2.344h-2.062a3.134 3.134 0 0 0-.445-1.418 2.779 2.779 0 0 0-1.031-1.008c-.43-.258-.934-.387-1.512-.387-.664 0-1.223.133-1.676.398a2.93 2.93 0 0 0-1.066 1.055 4.92 4.92 0 0 0-.562 1.465 8.08 8.08 0 0 0-.164 1.629v.492c0 .555.055 1.102.164 1.641s.293 1.027.551 1.465c.266.437.621.789 1.066 1.055.453.258 1.016.387 1.687.387zm13.523 0c.516 0 .992-.106 1.43-.316s.797-.5 1.078-.867c.281-.375.441-.801.48-1.277h2.063c-.039.75-.293 1.449-.762 2.098a5.203 5.203 0 0 1-1.816 1.559 5.267 5.267 0 0 1-2.473.586c-.953 0-1.785-.168-2.496-.504a4.952 4.952 0 0 1-1.758-1.383 6.17 6.17 0 0 1-1.043-2.016 8.527 8.527 0 0 1-.34-2.426v-.492c0-.852.113-1.656.34-2.414a6.146 6.146 0 0 1 1.043-2.027 4.952 4.952 0 0 1 1.758-1.383c.711-.336 1.543-.504 2.496-.504.992 0 1.859.203 2.602.609a4.468 4.468 0 0 1 1.746 1.641c.43.688.664 1.469.703 2.344h-2.063a3.122 3.122 0 0 0-.445-1.418 2.779 2.779 0 0 0-1.031-1.008c-.43-.258-.934-.387-1.512-.387-.664 0-1.223.133-1.676.398a2.93 2.93 0 0 0-1.066 1.055 4.948 4.948 0 0 0-.563 1.465 8.08 8.08 0 0 0-.164 1.629v.492c0 .555.055 1.102.164 1.641s.293 1.027.551 1.465c.266.437.621.789 1.066 1.055.453.258 1.016.387 1.688.387zm13.71 1.781c-.883 0-1.684-.148-2.402-.445a5.452 5.452 0 0 1-1.84-1.277c-.508-.547-.898-1.195-1.172-1.945s-.41-1.57-.41-2.461v-.492c0-1.031.152-1.949.457-2.754.305-.813.719-1.5 1.242-2.063s1.117-.988 1.781-1.277 1.352-.434 2.062-.434c.906 0 1.688.156 2.344.469.664.313 1.207.75 1.629 1.313.422.555.734 1.211.937 1.969.203.75.305 1.57.305 2.461v.973h-9.469v-1.77h7.301v-.164a5.378 5.378 0 0 0-.352-1.641c-.195-.531-.508-.969-.938-1.313s-1.016-.516-1.758-.516a2.949 2.949 0 0 0-2.425 1.23c-.296.406-.527.902-.692 1.488-.164.586-.246 1.262-.246 2.027v.492c0 .602.082 1.168.246 1.699.172.524.418.984.738 1.383.328.398.723.711 1.184.937.469.227 1 .34 1.594.34.766 0 1.414-.156 1.945-.469s.996-.73 1.395-1.254l1.312 1.043c-.273.414-.621.809-1.043 1.184s-.941.68-1.558.914c-.609.234-1.332.352-2.168.352zm10.593-10.476v15.117h-2.18V11.32h1.992l.188 2.438zm8.543 3.797v.246c0 .922-.109 1.777-.328 2.566-.219.781-.539 1.461-.961 2.039-.414.578-.926 1.027-1.535 1.348s-1.309.48-2.098.48c-.805 0-1.516-.133-2.133-.398s-1.141-.652-1.57-1.16a5.904 5.904 0 0 1-1.031-1.828 10.599 10.599 0 0 1-.516-2.402v-1.313c.094-.938.27-1.777.527-2.52s.598-1.375 1.02-1.898c.43-.531.949-.934 1.559-1.207.609-.281 1.312-.422 2.109-.422s1.504.156 2.121.469c.617.305 1.137.742 1.559 1.313s.738 1.254.949 2.051c.219.789.328 1.668.328 2.637zm-2.18.246v-.246c0-.633-.066-1.227-.199-1.781a4.51 4.51 0 0 0-.621-1.477 2.958 2.958 0 0 0-1.055-1.008c-.43-.25-.941-.375-1.535-.375-.547 0-1.023.094-1.43.281a3.103 3.103 0 0 0-1.02.762 4.042 4.042 0 0 0-.691 1.078 6.194 6.194 0 0 0-.387 1.242v3.035c.156.547.375 1.063.656 1.547.281.477.656.863 1.125 1.16.469.289 1.059.434 1.77.434.586 0 1.09-.121 1.512-.363.43-.25.781-.59 1.055-1.019a4.66 4.66 0 0 0 .621-1.477c.133-.563.199-1.16.199-1.793zm11.214-6.481v1.664H131.7V11.32h6.856zm-4.535-3.082h2.168v12.621c0 .43.066.754.199.973s.305.363.516.434c.211.07.437.105.68.105.18 0 .367-.016.563-.047.203-.039.355-.07.457-.094l.012 1.77a5.065 5.065 0 0 1-.68.152 5.137 5.137 0 0 1-.996.082c-.531 0-1.02-.105-1.465-.316s-.801-.563-1.066-1.055c-.258-.5-.387-1.172-.387-2.016V8.238zm20.26 3.082v1.664h-6.855V11.32h6.855zm-4.536-3.082h2.168v12.621c0 .43.066.754.199.973s.305.363.516.434c.211.07.438.105.68.105.18 0 .367-.016.562-.047.203-.039.356-.07.457-.094l.012 1.77a5.029 5.029 0 0 1-.68.152 5.151 5.151 0 0 1-.996.082c-.531 0-1.019-.105-1.465-.316s-.801-.563-1.066-1.055c-.258-.5-.387-1.172-.387-2.016V8.238zM159.952 6v18h-2.168V6h2.168zm-.516 11.18-.902-.035a7.63 7.63 0 0 1 .387-2.402c.25-.742.601-1.387 1.055-1.934s.992-.969 1.617-1.266a4.768 4.768 0 0 1 2.098-.457c.625 0 1.188.086 1.688.258.5.164.926.43 1.277.797.359.367.633.844.82 1.43.187.578.281 1.285.281 2.121v8.309h-2.18v-8.332c0-.664-.098-1.195-.293-1.594a1.802 1.802 0 0 0-.855-.879c-.375-.188-.836-.281-1.383-.281-.539 0-1.031.113-1.477.34a3.535 3.535 0 0 0-1.137.938 4.7 4.7 0 0 0-.738 1.371 5.008 5.008 0 0 0-.258 1.617zm17.788 7.054c-.883 0-1.684-.148-2.402-.445a5.452 5.452 0 0 1-1.84-1.277c-.508-.547-.898-1.195-1.172-1.945s-.41-1.57-.41-2.461v-.492c0-1.031.152-1.949.457-2.754.305-.813.719-1.5 1.242-2.063s1.117-.988 1.781-1.277a5.115 5.115 0 0 1 2.062-.434c.906 0 1.688.156 2.344.469.664.313 1.207.75 1.629 1.313.422.555.734 1.211.938 1.969.203.75.305 1.57.305 2.461v.973h-9.469v-1.77h7.301v-.164a5.407 5.407 0 0 0-.351-1.641c-.195-.531-.508-.969-.938-1.313s-1.016-.516-1.758-.516a2.949 2.949 0 0 0-2.425 1.23c-.297.406-.527.902-.691 1.488s-.246 1.262-.246 2.027v.492c0 .602.082 1.168.246 1.699.172.524.418.984.738 1.383.328.398.723.711 1.183.937.469.227 1 .34 1.594.34.766 0 1.414-.156 1.945-.469s.996-.73 1.394-1.254l1.313 1.043c-.273.414-.621.809-1.043 1.184s-.941.68-1.559.914c-.609.234-1.332.352-2.168.352zm20.647-12.914v1.664h-6.855V11.32h6.855zm-4.536-3.082h2.168v12.621c0 .43.066.754.199.973s.305.363.516.434c.211.07.438.105.68.105.18 0 .367-.016.562-.047.203-.039.356-.07.457-.094l.012 1.77a5.029 5.029 0 0 1-.68.152 5.151 5.151 0 0 1-.996.082c-.531 0-1.019-.105-1.465-.316s-.801-.563-1.066-1.055c-.258-.5-.387-1.172-.387-2.016V8.238zm13.301 15.996c-.884 0-1.684-.148-2.404-.445a5.434 5.434 0 0 1-1.838-1.277 5.656 5.656 0 0 1-1.172-1.945c-.274-.75-.41-1.57-.41-2.461v-.492c0-1.031.152-1.949.456-2.754.304-.813.718-1.5 1.242-2.063s1.118-.988 1.782-1.277a5.119 5.119 0 0 1 2.062-.434c.906 0 1.688.156 2.344.469.664.313 1.206.75 1.628 1.313.422.555.736 1.211.938 1.969.204.75.304 1.57.304 2.461v.973H202.1v-1.77h7.3v-.164a5.405 5.405 0 0 0-.35-1.641c-.196-.531-.508-.969-.938-1.313s-1.016-.516-1.758-.516c-.492 0-.946.105-1.36.316a2.904 2.904 0 0 0-1.066.914c-.296.406-.528.902-.692 1.488s-.246 1.262-.246 2.027v.492c0 .602.082 1.168.246 1.699.172.524.418.984.74 1.383.328.398.722.711 1.182.937.47.227 1 .34 1.594.34.766 0 1.414-.156 1.946-.469s.996-.73 1.394-1.254l1.312 1.043c-.272.414-.62.809-1.042 1.184s-.942.68-1.558.914c-.61.234-1.332.352-2.168.352zm10.592-10.921v10.688h-2.168v-12.68h2.11l.058 1.992zm3.962-2.063-.012 2.016a3.06 3.06 0 0 0-.516-.07 5.382 5.382 0 0 0-.54-.023c-.5 0-.94.078-1.324.234-.382.156-.706.375-.972.656s-.476.617-.634 1.008a4.83 4.83 0 0 0-.292 1.266l-.61.352c0-.766.074-1.484.224-2.156a5.86 5.86 0 0 1 .714-1.781 3.5 3.5 0 0 1 1.218-1.219c.5-.297 1.094-.445 1.782-.445.156 0 .336.02.54.059.202.031.342.066.422.105zm5.12 2.59V24h-2.18V11.32h2.062l.118 2.52zm-.446 3.34-1.008-.035a8.692 8.692 0 0 1 .34-2.402c.218-.742.542-1.387.972-1.934s.966-.969 1.606-1.266c.64-.305 1.382-.457 2.226-.457.594 0 1.142.086 1.642.258.5.164.932.426 1.3.785s.652.82.856 1.383c.202.563.304 1.242.304 2.039V24h-2.168v-8.344c0-.664-.114-1.195-.34-1.594a1.931 1.931 0 0 0-.938-.867c-.406-.188-.882-.281-1.428-.281-.642 0-1.176.113-1.606.34s-.774.539-1.032.938a4.228 4.228 0 0 0-.562 1.371 7.628 7.628 0 0 0-.164 1.617zm8.214-1.196-1.452.445c.008-.695.12-1.363.34-2.004.226-.641.55-1.211.972-1.711.43-.5.958-.895 1.582-1.184.626-.297 1.34-.445 2.144-.445.68 0 1.282.09 1.806.27.53.18.976.457 1.336.832.366.367.644.84.832 1.418.186.578.28 1.266.28 2.063V24h-2.18v-8.355c0-.711-.112-1.262-.338-1.652a1.778 1.778 0 0 0-.938-.832c-.398-.164-.876-.246-1.43-.246-.476 0-.898.082-1.266.246a2.628 2.628 0 0 0-.926.68c-.25.281-.44.605-.574.973a3.64 3.64 0 0 0-.188 1.172zm19.464 4.653c0-.313-.07-.602-.21-.867-.134-.273-.41-.52-.832-.738-.414-.227-1.04-.422-1.876-.586a14.839 14.839 0 0 1-1.91-.527 5.781 5.781 0 0 1-1.44-.738 3.096 3.096 0 0 1-.904-1.02c-.21-.391-.316-.848-.316-1.371 0-.5.11-.973.328-1.418.228-.445.544-.84.95-1.184.414-.344.91-.613 1.488-.809s1.222-.293 1.934-.293c1.016 0 1.882.18 2.602.539.718.359 1.268.84 1.652 1.441.382.594.574 1.254.574 1.98h-2.168a1.87 1.87 0 0 0-.316-1.02c-.204-.336-.504-.613-.904-.832-.39-.219-.87-.328-1.44-.328-.602 0-1.09.094-1.466.281-.366.18-.636.41-.808.691a1.74 1.74 0 0 0-.246.891c0 .234.04.445.118.633.086.18.234.348.444.504.212.148.508.289.892.422.382.133.87.266 1.464.398 1.04.234 1.894.516 2.566.844s1.172.73 1.5 1.207c.328.477.492 1.055.492 1.734a3.31 3.31 0 0 1-.35 1.523c-.228.461-.56.859-.998 1.195a4.914 4.914 0 0 1-1.546.773c-.594.18-1.262.27-2.004.27-1.118 0-2.062-.199-2.836-.598s-1.36-.914-1.758-1.547-.598-1.301-.598-2.004h2.18c.032.594.204 1.066.516 1.418.312.344.696.59 1.148.738a4.52 4.52 0 0 0 1.348.211c.594 0 1.09-.078 1.488-.234.406-.156.716-.371.926-.645.212-.273.316-.586.316-.937zm20.366 1.195v-6.527c0-.5-.102-.934-.304-1.301a1.992 1.992 0 0 0-.892-.867c-.398-.203-.89-.305-1.476-.305-.546 0-1.028.094-1.442.281a2.516 2.516 0 0 0-.96.738c-.226.305-.34.633-.34.984h-2.168c0-.453.118-.902.352-1.348s.57-.848 1.008-1.207a5.02 5.02 0 0 1 1.594-.867c.624-.219 1.32-.328 2.086-.328.92 0 1.734.156 2.436.469a3.646 3.646 0 0 1 1.664 1.418c.406.625.61 1.41.61 2.355v5.906c0 .422.036.871.106 1.348.078.477.19.887.34 1.23v.188h-2.262c-.11-.25-.196-.582-.258-.996a8.113 8.113 0 0 1-.094-1.172zm.374-5.519.024 1.523h-2.19a8.16 8.16 0 0 0-1.654.152c-.484.094-.89.238-1.218.434s-.578.441-.75.738a1.956 1.956 0 0 0-.258 1.019c0 .399.09.762.27 1.09s.448.59.808.785c.368.188.816.281 1.348.281.664 0 1.25-.141 1.758-.422s.91-.625 1.206-1.031c.306-.406.47-.801.492-1.184l.926 1.043c-.054.328-.202.691-.444 1.09s-.568.781-.974 1.148c-.398.359-.874.66-1.428.902-.548.234-1.166.352-1.852.352-.86 0-1.614-.168-2.262-.504-.64-.336-1.14-.785-1.5-1.348a3.563 3.563 0 0 1-.528-1.91c0-.68.134-1.277.398-1.793.266-.523.65-.957 1.15-1.301.5-.352 1.1-.617 1.804-.797s1.488-.27 2.356-.27h2.518zm8.332-2.286V24h-2.168V11.32h2.05l.118 2.707zm-.516 3.153-.902-.035a7.63 7.63 0 0 1 .386-2.402 5.987 5.987 0 0 1 1.056-1.934 4.695 4.695 0 0 1 3.714-1.723c.626 0 1.188.086 1.688.258.5.164.926.43 1.278.797.358.367.632.844.82 1.43.186.578.28 1.285.28 2.121v8.309h-2.178v-8.332c0-.664-.098-1.195-.294-1.594-.196-.406-.48-.699-.856-.879-.374-.188-.836-.281-1.382-.281-.54 0-1.032.113-1.476.34a3.528 3.528 0 0 0-1.138.938 4.724 4.724 0 0 0-.738 1.371 5.008 5.008 0 0 0-.258 1.617zm20.566 4.359V6h2.18v18h-1.992l-.188-2.461zm-8.532-3.738v-.246c0-.969.118-1.848.352-2.637.242-.797.582-1.48 1.02-2.051a4.621 4.621 0 0 1 1.582-1.313c.616-.313 1.304-.469 2.062-.469.798 0 1.492.141 2.086.422a4.01 4.01 0 0 1 1.524 1.207c.422.523.754 1.156.996 1.898s.41 1.582.504 2.52v1.078c-.086.93-.254 1.766-.504 2.508-.242.742-.574 1.375-.996 1.898a4.169 4.169 0 0 1-1.524 1.207c-.602.273-1.304.41-2.11.41-.742 0-1.422-.16-2.038-.48a4.812 4.812 0 0 1-1.582-1.348 6.555 6.555 0 0 1-1.02-2.039 8.992 8.992 0 0 1-.352-2.566zm2.18-.246v.246c0 .633.062 1.227.188 1.781.132.555.336 1.043.61 1.465.272.422.62.754 1.042.996.422.234.926.352 1.512.352.718 0 1.308-.152 1.77-.457a3.403 3.403 0 0 0 1.124-1.207c.282-.5.5-1.043.656-1.629v-2.824a6.236 6.236 0 0 0-.41-1.242 3.808 3.808 0 0 0-.68-1.078 2.932 2.932 0 0 0-1.018-.762c-.4-.188-.872-.281-1.418-.281-.594 0-1.106.125-1.536.375a2.97 2.97 0 0 0-1.042 1.008 4.628 4.628 0 0 0-.61 1.477 8.028 8.028 0 0 0-.188 1.781zm24.854 4.898c.516 0 .992-.106 1.43-.316s.796-.5 1.078-.867c.28-.375.442-.801.48-1.277h2.062c-.038.75-.292 1.449-.762 2.098-.46.641-1.066 1.16-1.816 1.559a5.266 5.266 0 0 1-2.472.586c-.954 0-1.786-.168-2.496-.504a4.934 4.934 0 0 1-1.758-1.383 6.187 6.187 0 0 1-1.042-2.016 8.457 8.457 0 0 1-.34-2.426v-.492c0-.852.112-1.656.34-2.414a6.163 6.163 0 0 1 1.042-2.027 4.934 4.934 0 0 1 1.758-1.383c.71-.336 1.542-.504 2.496-.504.992 0 1.86.203 2.602.609a4.468 4.468 0 0 1 1.746 1.641c.43.688.664 1.469.702 2.344h-2.062a3.111 3.111 0 0 0-.446-1.418 2.769 2.769 0 0 0-1.03-1.008c-.43-.258-.934-.387-1.512-.387-.664 0-1.222.133-1.676.398a2.93 2.93 0 0 0-1.066 1.055 4.893 4.893 0 0 0-.562 1.465 8.01 8.01 0 0 0-.164 1.629v.492c0 .555.054 1.102.164 1.641a4.67 4.67 0 0 0 .55 1.465c.266.437.622.789 1.066 1.055.454.258 1.016.387 1.688.387zm7.874-4.652v-.27c0-.914.132-1.762.398-2.543a6.048 6.048 0 0 1 1.148-2.051 5.115 5.115 0 0 1 1.818-1.359c.71-.328 1.508-.492 2.39-.492.89 0 1.692.164 2.402.492.72.32 1.328.773 1.828 1.359a5.94 5.94 0 0 1 1.16 2.051c.266.781.398 1.629.398 2.543v.27c0 .914-.132 1.762-.398 2.543s-.652 1.465-1.16 2.051a5.322 5.322 0 0 1-1.816 1.359c-.704.32-1.5.48-2.39.48-.892 0-1.692-.16-2.402-.48a5.433 5.433 0 0 1-1.83-1.359c-.5-.586-.882-1.27-1.148-2.051s-.398-1.629-.398-2.543zm2.168-.27v.27c0 .633.074 1.23.222 1.793.15.555.372 1.047.668 1.477.306.43.684.769 1.138 1.019.452.242.98.363 1.582.363.594 0 1.112-.121 1.558-.363.454-.25.828-.59 1.124-1.019.298-.43.52-.922.668-1.477.158-.563.236-1.16.236-1.793v-.27c0-.625-.078-1.215-.236-1.77a4.546 4.546 0 0 0-.678-1.488 3.23 3.23 0 0 0-1.126-1.031c-.446-.25-.968-.375-1.57-.375-.594 0-1.118.125-1.57.375-.446.25-.82.594-1.126 1.031-.296.43-.518.926-.668 1.488a6.845 6.845 0 0 0-.222 1.77zm15.222-3.504V24h-2.168V11.32h2.05l.118 2.707zm-.516 3.153-.902-.035a7.63 7.63 0 0 1 .386-2.402 5.987 5.987 0 0 1 1.056-1.934 4.695 4.695 0 0 1 3.714-1.723c.624 0 1.188.086 1.688.258.5.164.926.43 1.276.797.36.367.634.844.822 1.43.186.578.28 1.285.28 2.121v8.309h-2.18v-8.332c0-.664-.096-1.195-.292-1.594-.196-.406-.48-.699-.856-.879-.374-.188-.836-.281-1.382-.281-.54 0-1.032.113-1.478.34a3.542 3.542 0 0 0-1.136.938 4.724 4.724 0 0 0-.738 1.371 5.008 5.008 0 0 0-.258 1.617zm20.566 4.359V6h2.18v18h-1.992l-.188-2.461zm-8.532-3.738v-.246c0-.969.118-1.848.352-2.637.242-.797.582-1.48 1.02-2.051a4.603 4.603 0 0 1 1.582-1.313c.616-.313 1.304-.469 2.062-.469.796 0 1.492.141 2.086.422a4.01 4.01 0 0 1 1.524 1.207c.422.523.754 1.156.996 1.898s.41 1.582.504 2.52v1.078c-.086.93-.254 1.766-.504 2.508-.242.742-.574 1.375-.996 1.898a4.169 4.169 0 0 1-1.524 1.207c-.602.273-1.304.41-2.11.41-.742 0-1.422-.16-2.038-.48a4.792 4.792 0 0 1-1.582-1.348 6.555 6.555 0 0 1-1.02-2.039 8.992 8.992 0 0 1-.352-2.566zm2.18-.246v.246c0 .633.062 1.227.188 1.781a4.68 4.68 0 0 0 .608 1.465 3.03 3.03 0 0 0 1.044.996c.422.234.926.352 1.512.352.718 0 1.308-.152 1.77-.457.468-.305.842-.707 1.124-1.207s.5-1.043.656-1.629v-2.824a6.236 6.236 0 0 0-.41-1.242 3.808 3.808 0 0 0-.68-1.078 2.922 2.922 0 0 0-1.02-.762c-.398-.188-.87-.281-1.418-.281-.592 0-1.104.125-1.534.375-.422.242-.77.578-1.044 1.008a4.672 4.672 0 0 0-.608 1.477 8.028 8.028 0 0 0-.188 1.781zm15.222-6.235V24h-2.18V11.32h2.18zm-2.344-3.363c0-.352.106-.648.316-.891.22-.242.54-.363.962-.363.414 0 .73.121.948.363.228.242.34.539.34.891 0 .336-.112.625-.34.867-.218.234-.534.352-.948.352-.422 0-.742-.117-.962-.352a1.28 1.28 0 0 1-.316-.867zm12.092 3.363v1.664h-6.854V11.32h6.854zm-4.534-3.082h2.168v12.621c0 .43.066.754.198.973a.963.963 0 0 0 .516.434c.212.07.438.105.68.105.18 0 .368-.016.562-.047.204-.039.356-.07.458-.094l.012 1.77c-.172.055-.4.105-.68.152a5.151 5.151 0 0 1-.996.082c-.532 0-1.02-.105-1.466-.316-.444-.211-.8-.563-1.066-1.055-.258-.5-.386-1.172-.386-2.016V8.238zm10.394 3.082V24h-2.18V11.32h2.18zm-2.344-3.363c0-.352.104-.648.316-.891.218-.242.538-.363.96-.363.414 0 .732.121.95.363.226.242.34.539.34.891 0 .336-.114.625-.34.867-.218.234-.536.352-.95.352-.422 0-.742-.117-.96-.352a1.27 1.27 0 0 1-.316-.867zm6.21 9.844v-.27c0-.914.132-1.762.398-2.543a6.048 6.048 0 0 1 1.148-2.051 5.125 5.125 0 0 1 1.816-1.359c.712-.328 1.508-.492 2.392-.492.89 0 1.69.164 2.402.492.718.32 1.328.773 1.828 1.359a5.94 5.94 0 0 1 1.16 2.051c.266.781.398 1.629.398 2.543v.27c0 .914-.132 1.762-.398 2.543s-.652 1.465-1.16 2.051a5.322 5.322 0 0 1-1.816 1.359c-.704.32-1.5.48-2.392.48-.89 0-1.69-.16-2.402-.48a5.445 5.445 0 0 1-1.828-1.359c-.5-.586-.882-1.27-1.148-2.051s-.398-1.629-.398-2.543zm2.168-.27v.27c0 .633.074 1.23.222 1.793.148.555.372 1.047.668 1.477.304.43.684.769 1.136 1.019.454.242.982.363 1.582.363.594 0 1.114-.121 1.56-.363.452-.25.828-.59 1.124-1.019.298-.43.52-.922.668-1.477.156-.563.234-1.16.234-1.793v-.27c0-.625-.078-1.215-.234-1.77a4.509 4.509 0 0 0-.68-1.488 3.224 3.224 0 0 0-1.124-1.031c-.446-.25-.97-.375-1.57-.375-.594 0-1.118.125-1.57.375-.446.25-.822.594-1.126 1.031-.296.43-.52.926-.668 1.488a6.845 6.845 0 0 0-.222 1.77zm15.222-3.504V24h-2.168V11.32h2.05l.118 2.707zm-.516 3.153-.902-.035a7.573 7.573 0 0 1 .386-2.402 6.021 6.021 0 0 1 1.054-1.934 4.702 4.702 0 0 1 3.716-1.723c.624 0 1.186.086 1.686.258.5.164.926.43 1.278.797.36.367.634.844.82 1.43.188.578.282 1.285.282 2.121v8.309h-2.18v-8.332c0-.664-.098-1.195-.292-1.594a1.812 1.812 0 0 0-.856-.879c-.376-.188-.836-.281-1.384-.281-.538 0-1.03.113-1.476.34a3.52 3.52 0 0 0-1.136.938 4.724 4.724 0 0 0-.738 1.371 5.008 5.008 0 0 0-.258 1.617zm19.956 3.457c0-.313-.07-.602-.212-.867-.132-.273-.41-.52-.832-.738-.414-.227-1.038-.422-1.874-.586a14.749 14.749 0 0 1-1.91-.527 5.762 5.762 0 0 1-1.442-.738 3.09 3.09 0 0 1-.902-1.02c-.212-.391-.316-.848-.316-1.371 0-.5.108-.973.328-1.418.226-.445.542-.84.948-1.184.414-.344.91-.613 1.488-.809a6.04 6.04 0 0 1 1.934-.293c1.016 0 1.884.18 2.602.539s1.27.84 1.652 1.441c.384.594.574 1.254.574 1.98h-2.168c0-.352-.104-.691-.316-1.02-.202-.336-.504-.613-.902-.832-.39-.219-.872-.328-1.442-.328-.602 0-1.09.094-1.464.281-.368.18-.638.41-.808.691a1.74 1.74 0 0 0-.246.891c0 .234.038.445.116.633.086.18.234.348.446.504.21.148.508.289.89.422s.872.266 1.464.398c1.04.234 1.896.516 2.568.844s1.172.73 1.5 1.207c.328.477.492 1.055.492 1.734a3.366 3.366 0 0 1-1.348 2.718c-.43.328-.946.586-1.546.773-.594.18-1.262.27-2.004.27-1.118 0-2.064-.199-2.836-.598-.774-.399-1.36-.914-1.758-1.547a3.69 3.69 0 0 1-.598-2.004h2.18c.03.594.202 1.066.516 1.418.312.344.694.59 1.148.738a4.51 4.51 0 0 0 1.348.211c.592 0 1.088-.078 1.488-.234.406-.156.714-.371.926-.645.21-.273.316-.586.316-.937zm12.314-2.836v-.27c0-.914.132-1.762.398-2.543a6.048 6.048 0 0 1 1.148-2.051 5.115 5.115 0 0 1 1.818-1.359c.71-.328 1.508-.492 2.39-.492.89 0 1.692.164 2.402.492.72.32 1.328.773 1.828 1.359a5.909 5.909 0 0 1 1.16 2.051c.266.781.4 1.629.4 2.543v.27c0 .914-.134 1.762-.4 2.543a6.058 6.058 0 0 1-1.16 2.051 5.303 5.303 0 0 1-1.816 1.359c-.704.32-1.5.48-2.39.48-.892 0-1.692-.16-2.402-.48a5.433 5.433 0 0 1-1.83-1.359c-.5-.586-.882-1.27-1.148-2.051s-.398-1.629-.398-2.543zm2.168-.27v.27c0 .633.074 1.23.222 1.793.15.555.372 1.047.668 1.477.306.43.684.769 1.138 1.019.452.242.98.363 1.582.363.594 0 1.112-.121 1.558-.363.454-.25.828-.59 1.126-1.019.296-.43.518-.922.668-1.477.156-.563.234-1.16.234-1.793v-.27c0-.625-.078-1.215-.234-1.77a4.591 4.591 0 0 0-.68-1.488 3.23 3.23 0 0 0-1.126-1.031c-.444-.25-.968-.375-1.57-.375-.594 0-1.118.125-1.57.375-.446.25-.82.594-1.126 1.031-.296.43-.518.926-.668 1.488a6.845 6.845 0 0 0-.222 1.77zM462.424 24h-2.168V9.984c0-.914.164-1.684.492-2.309a3.309 3.309 0 0 1 1.442-1.43c.624-.328 1.368-.492 2.226-.492a6.09 6.09 0 0 1 1.5.188l-.116 1.77a3.643 3.643 0 0 0-.564-.082 7.72 7.72 0 0 0-.608-.023c-.462 0-.86.094-1.196.281-.328.18-.578.445-.75.797s-.258.785-.258 1.301v14.016zm2.696-12.68v1.664h-6.868V11.32h6.868zm15.596 0v1.664h-6.856V11.32h6.856zm-4.536-3.082h2.168v12.621c0 .43.066.754.2.973a.952.952 0 0 0 .514.434c.212.07.438.105.68.105.18 0 .368-.016.564-.047.202-.039.354-.07.456-.094l.012 1.77a5.029 5.029 0 0 1-.68.152 5.151 5.151 0 0 1-.996.082c-.532 0-1.02-.105-1.464-.316-.446-.211-.802-.563-1.068-1.055-.256-.5-.386-1.172-.386-2.016V8.238zM486.386 6v18h-2.168V6h2.168zm-.516 11.18-.902-.035a7.63 7.63 0 0 1 .388-2.402c.25-.742.6-1.387 1.054-1.934a4.695 4.695 0 0 1 3.714-1.723c.626 0 1.188.086 1.688.258.5.164.926.43 1.278.797.358.367.632.844.82 1.43.188.578.28 1.285.28 2.121v8.309h-2.178v-8.332c0-.664-.098-1.195-.294-1.594-.196-.406-.48-.699-.856-.879-.374-.188-.836-.281-1.382-.281-.54 0-1.032.113-1.476.34a3.549 3.549 0 0 0-1.138.938 4.724 4.724 0 0 0-.738 1.371 5.008 5.008 0 0 0-.258 1.617zm17.788 7.054c-.882 0-1.682-.148-2.402-.445a5.462 5.462 0 0 1-1.84-1.277 5.688 5.688 0 0 1-1.172-1.945 7.168 7.168 0 0 1-.41-2.461v-.492c0-1.031.152-1.949.458-2.754.304-.813.718-1.5 1.242-2.063s1.116-.988 1.782-1.277a5.112 5.112 0 0 1 2.062-.434c.906 0 1.688.156 2.344.469.664.313 1.206.75 1.628 1.313.422.555.734 1.211.938 1.969.202.75.304 1.57.304 2.461v.973h-9.468v-1.77h7.3v-.164a5.349 5.349 0 0 0-.352-1.641c-.194-.531-.506-.969-.936-1.313s-1.016-.516-1.758-.516a2.953 2.953 0 0 0-2.426 1.23c-.298.406-.528.902-.692 1.488s-.246 1.262-.246 2.027v.492c0 .602.082 1.168.246 1.699.172.524.418.984.738 1.383.328.398.724.711 1.184.937.468.227 1 .34 1.594.34.766 0 1.414-.156 1.946-.469a4.81 4.81 0 0 0 1.394-1.254l1.312 1.043c-.274.414-.62.809-1.042 1.184s-.942.68-1.56.914c-.608.234-1.332.352-2.168.352z" style="fill:var(--color2, #8e8f99)"/>
      <path fill="#4d5ae5" d="M525.618 17.309h-4.558v-1.84h4.558c.882 0 1.598-.141 2.144-.422.548-.281.946-.672 1.196-1.172.258-.5.386-1.07.386-1.711 0-.586-.128-1.137-.386-1.652-.25-.516-.648-.93-1.196-1.242-.546-.32-1.262-.48-2.144-.48h-4.032v15.211h-2.262V6.938h6.294c1.288 0 2.378.223 3.27.668.89.445 1.566 1.063 2.026 1.852.462.781.692 1.676.692 2.684 0 1.094-.23 2.027-.692 2.801-.46.773-1.136 1.363-2.026 1.77-.892.398-1.982.598-3.27.598zm11.648-3.996v10.688h-2.168v-12.68h2.108l.06 1.992zm3.96-2.063-.012 2.016a3.06 3.06 0 0 0-.516-.07 5.367 5.367 0 0 0-.538-.023c-.5 0-.942.078-1.324.234a2.741 2.741 0 0 0-.974.656 3.173 3.173 0 0 0-.632 1.008 4.83 4.83 0 0 0-.292 1.266l-.61.352c0-.766.074-1.484.222-2.156a5.862 5.862 0 0 1 .716-1.781 3.5 3.5 0 0 1 1.218-1.219c.5-.297 1.094-.445 1.782-.445.156 0 .336.02.538.059.204.031.344.066.422.105zm5.32.07V24h-2.18V11.32h2.18zm-2.344-3.363c0-.352.106-.648.316-.891.22-.242.54-.363.962-.363.414 0 .73.121.948.363.226.242.34.539.34.891 0 .336-.114.625-.34.867-.218.234-.534.352-.948.352-.422 0-.742-.117-.962-.352a1.28 1.28 0 0 1-.316-.867zm10.64 14.086 3.468-10.723h2.216L555.966 24h-1.452l.328-1.957zm-2.894-10.723 3.574 10.781.246 1.898h-1.454l-4.594-12.68h2.228zm18.912 10.512v-6.527c0-.5-.102-.934-.304-1.301a1.992 1.992 0 0 0-.892-.867c-.398-.203-.89-.305-1.476-.305-.546 0-1.028.094-1.442.281a2.516 2.516 0 0 0-.96.738c-.226.305-.34.633-.34.984h-2.168c0-.453.118-.902.352-1.348s.57-.848 1.008-1.207a5.02 5.02 0 0 1 1.594-.867c.624-.219 1.32-.328 2.086-.328.922 0 1.734.156 2.436.469a3.646 3.646 0 0 1 1.664 1.418c.408.625.61 1.41.61 2.355v5.906c0 .422.036.871.106 1.348.078.477.192.887.34 1.23v.188h-2.262c-.11-.25-.196-.582-.258-.996a8.113 8.113 0 0 1-.094-1.172zm.376-5.519.022 1.523h-2.19a8.16 8.16 0 0 0-1.654.152c-.484.094-.89.238-1.218.434s-.578.441-.75.738a1.956 1.956 0 0 0-.258 1.019c0 .399.09.762.27 1.09s.45.59.808.785c.368.188.816.281 1.348.281.664 0 1.25-.141 1.758-.422s.91-.625 1.206-1.031c.306-.406.47-.801.494-1.184l.924 1.043c-.054.328-.202.691-.444 1.09s-.566.781-.974 1.148c-.398.359-.874.66-1.428.902-.548.234-1.164.352-1.852.352-.86 0-1.614-.168-2.262-.504-.64-.336-1.14-.785-1.5-1.348a3.563 3.563 0 0 1-.528-1.91c0-.68.134-1.277.4-1.793a3.452 3.452 0 0 1 1.148-1.301c.5-.352 1.102-.617 1.804-.797.704-.18 1.488-.27 2.356-.27h2.52zm11.236 6.14c.516 0 .992-.106 1.43-.316s.798-.5 1.078-.867a2.4 2.4 0 0 0 .48-1.277h2.064c-.04.75-.294 1.449-.762 2.098a5.212 5.212 0 0 1-1.816 1.559 5.274 5.274 0 0 1-2.474.586c-.952 0-1.784-.168-2.496-.504a4.97 4.97 0 0 1-1.758-1.383 6.187 6.187 0 0 1-1.042-2.016 8.527 8.527 0 0 1-.34-2.426v-.492c0-.852.114-1.656.34-2.414a6.163 6.163 0 0 1 1.042-2.027 4.97 4.97 0 0 1 1.758-1.383c.712-.336 1.544-.504 2.496-.504.992 0 1.86.203 2.602.609a4.468 4.468 0 0 1 1.746 1.641c.43.688.664 1.469.704 2.344h-2.064a3.11 3.11 0 0 0-.444-1.418 2.774 2.774 0 0 0-1.032-1.008c-.43-.258-.934-.387-1.512-.387-.664 0-1.222.133-1.676.398-.444.258-.8.609-1.066 1.055a4.893 4.893 0 0 0-.562 1.465 8.01 8.01 0 0 0-.164 1.629v.492c0 .555.054 1.102.164 1.641s.292 1.027.55 1.465c.266.437.622.789 1.066 1.055.454.258 1.016.387 1.688.387zm12.012.235 3.526-11.367h2.32l-5.086 14.637a7.791 7.791 0 0 1-.468 1.008c-.188.367-.43.715-.726 1.043a3.47 3.47 0 0 1-1.078.797c-.414.211-.91.316-1.488.316-.172 0-.392-.023-.656-.07a6.622 6.622 0 0 1-.564-.117l-.012-1.758c.064.008.16.016.294.023.14.016.238.023.292.023.492 0 .91-.066 1.254-.199a1.9 1.9 0 0 0 .868-.644c.242-.297.45-.707.62-1.231l.904-2.461zm-2.59-11.368 3.292 9.844.562 2.285-1.558.797-4.664-12.926h2.368zm24.888 5.989h-4.558v-1.84h4.558c.882 0 1.598-.141 2.144-.422.548-.281.946-.672 1.196-1.172.258-.5.386-1.07.386-1.711 0-.586-.128-1.137-.386-1.652-.25-.516-.648-.93-1.196-1.242-.546-.32-1.262-.48-2.144-.48h-4.032v15.211h-2.26V6.938h6.292c1.29 0 2.38.223 3.27.668s1.566 1.063 2.028 1.852c.46.781.69 1.676.69 2.684 0 1.094-.23 2.027-.69 2.801-.462.773-1.138 1.363-2.028 1.77-.89.398-1.98.598-3.27.598zm8.742.492v-.27c0-.914.132-1.762.398-2.543a6.048 6.048 0 0 1 1.148-2.051 5.125 5.125 0 0 1 1.816-1.359c.712-.328 1.508-.492 2.392-.492.89 0 1.69.164 2.402.492.718.32 1.328.773 1.828 1.359a5.94 5.94 0 0 1 1.16 2.051c.266.781.398 1.629.398 2.543v.27c0 .914-.132 1.762-.398 2.543s-.652 1.465-1.16 2.051a5.322 5.322 0 0 1-1.816 1.359c-.704.32-1.5.48-2.392.48-.89 0-1.69-.16-2.402-.48a5.445 5.445 0 0 1-1.828-1.359c-.5-.586-.882-1.27-1.148-2.051s-.398-1.629-.398-2.543zm2.168-.27v.27c0 .633.074 1.23.222 1.793.148.555.372 1.047.668 1.477.304.43.684.769 1.136 1.019.454.242.982.363 1.582.363.594 0 1.114-.121 1.56-.363.452-.25.828-.59 1.124-1.019.298-.43.52-.922.668-1.477.156-.563.234-1.16.234-1.793v-.27c0-.625-.078-1.215-.234-1.77a4.509 4.509 0 0 0-.68-1.488 3.224 3.224 0 0 0-1.124-1.031c-.446-.25-.97-.375-1.57-.375-.594 0-1.118.125-1.57.375-.446.25-.822.594-1.126 1.031-.296.43-.52.926-.668 1.488a6.845 6.845 0 0 0-.222 1.77zM643.1 6v18h-2.18V6h2.18zm6.796 5.32V24h-2.18V11.32h2.18zm-2.344-3.363c0-.352.106-.648.318-.891.218-.242.538-.363.96-.363.414 0 .73.121.95.363.226.242.34.539.34.891 0 .336-.114.625-.34.867-.22.234-.536.352-.95.352-.422 0-.742-.117-.96-.352a1.272 1.272 0 0 1-.318-.867zm11.86 14.496c.514 0 .992-.106 1.428-.316.438-.211.798-.5 1.08-.867.28-.375.44-.801.48-1.277h2.062c-.04.75-.292 1.449-.762 2.098-.46.641-1.066 1.16-1.816 1.559a5.266 5.266 0 0 1-2.472.586c-.954 0-1.786-.168-2.496-.504a4.934 4.934 0 0 1-1.758-1.383 6.153 6.153 0 0 1-1.044-2.016 8.527 8.527 0 0 1-.34-2.426v-.492c0-.852.114-1.656.34-2.414a6.13 6.13 0 0 1 1.044-2.027 4.934 4.934 0 0 1 1.758-1.383c.71-.336 1.542-.504 2.496-.504.992 0 1.858.203 2.6.609a4.441 4.441 0 0 1 1.746 1.641c.43.688.664 1.469.704 2.344H662.4a3.135 3.135 0 0 0-.446-1.418 2.774 2.774 0 0 0-1.032-1.008c-.428-.258-.932-.387-1.51-.387-.664 0-1.224.133-1.676.398a2.915 2.915 0 0 0-1.066 1.055 4.95 4.95 0 0 0-.564 1.465 8.153 8.153 0 0 0-.164 1.629v.492c0 .555.056 1.102.164 1.641.11.539.294 1.027.552 1.465.264.437.62.789 1.066 1.055.452.258 1.016.387 1.688.387zm12.01.235 3.528-11.367h2.32l-5.086 14.637a8.366 8.366 0 0 1-.468 1.008c-.188.367-.43.715-.728 1.043a3.447 3.447 0 0 1-1.078.797c-.414.211-.91.316-1.488.316-.172 0-.39-.023-.656-.07s-.454-.086-.562-.117l-.012-1.758c.062.008.16.016.292.023.142.016.238.023.294.023.492 0 .91-.066 1.254-.199.344-.125.632-.34.866-.644.242-.297.45-.707.622-1.231l.902-2.461zm-2.59-11.368 3.294 9.844.562 2.285-1.558.797-4.664-12.926h2.366z" style="fill:var(--color3, #4d5ae5)"/>
      <path fill="#4d5ae5" d="M517.344 26.344h160.218v1.172H517.344v-1.172z" style="fill:var(--color3, #4d5ae5)"/>
    </symbol>
    <symbol id="icon-comment" viewBox="0 0 83 32">
      <path fill="#2e2f42" d="M4.671 6.601v1.978h-.258V6.601h.258zm.636 0v.215H3.778v-.215h1.529zm.841 2.006c-.102 0-.195-.017-.279-.052s-.154-.085-.213-.148c-.059-.063-.104-.139-.136-.226s-.048-.182-.048-.285v-.057c0-.12.018-.226.053-.319s.083-.174.144-.239a.617.617 0 0 1 .446-.198c.105 0 .196.018.272.054s.14.087.189.152c.049.064.085.14.109.228s.035.182.035.285v.113H5.622V7.71h.846v-.019c-.004-.065-.017-.129-.041-.19s-.059-.112-.109-.152-.118-.06-.204-.06a.337.337 0 0 0-.282.143.522.522 0 0 0-.08.173.873.873 0 0 0-.029.235v.057c0 .07.01.135.029.197a.457.457 0 0 0 .223.269.406.406 0 0 0 .185.039c.089 0 .164-.018.226-.054s.115-.085.162-.145l.152.121c-.032.048-.072.094-.121.137s-.109.079-.181.106a.702.702 0 0 1-.251.041zM7.294 7.11l.322.535.326-.535h.295l-.481.726.496.745h-.291l-.34-.552-.34.552h-.292l.495-.745-.48-.726h.289zm1.938 0v.193h-.795V7.11h.795zm-.526-.358h.251v1.463c0 .05.008.087.023.113s.035.042.06.05a.252.252 0 0 0 .079.012c.021 0 .043-.002.065-.005s.041-.008.053-.011l.001.205a.748.748 0 0 1-.194.027c-.062 0-.118-.012-.17-.037s-.093-.065-.124-.122a.513.513 0 0 1-.045-.234V6.751zm2.006.358v1.47h-.253V7.11h.253zm-.271-.39c0-.041.012-.075.037-.103s.063-.042.111-.042.085.014.11.042.039.063.039.103c0 .039-.013.072-.039.101s-.062.041-.11.041c-.049 0-.086-.014-.111-.041s-.037-.062-.037-.101zm1.038.703v1.156h-.251v-1.47h.238l.014.314zm-.06.366-.105-.004c.001-.101.016-.193.045-.279s.07-.161.122-.224a.55.55 0 0 1 .431-.2c.072 0 .138.01.196.03a.371.371 0 0 1 .243.258.8.8 0 0 1 .033.246v.963h-.253v-.966c0-.077-.011-.139-.034-.185s-.056-.081-.099-.102a.35.35 0 0 0-.16-.033.371.371 0 0 0-.303.148.529.529 0 0 0-.086.159.579.579 0 0 0-.03.188zm1.709-.397v1.753h-.253V7.11h.231l.022.283zm.99.44v.029c0 .107-.013.206-.038.298s-.063.169-.111.236a.502.502 0 0 1-.421.212c-.093 0-.176-.015-.247-.046s-.132-.076-.182-.135c-.05-.059-.09-.13-.12-.212s-.049-.175-.06-.279v-.152c.011-.109.031-.206.061-.292s.069-.159.118-.22c.05-.062.11-.108.181-.14s.152-.049.245-.049.174.018.246.054c.072.035.132.086.181.152s.086.145.11.238c.025.091.038.193.038.306zm-.252.029v-.029c0-.073-.008-.142-.023-.207s-.039-.122-.072-.171a.341.341 0 0 0-.3-.16c-.063 0-.119.011-.166.033s-.086.051-.118.088c-.033.036-.059.078-.08.125s-.035.094-.045.144v.352c.018.063.043.123.076.179s.076.1.13.135a.38.38 0 0 0 .205.05c.068 0 .126-.014.175-.042s.091-.068.122-.118c.033-.05.057-.107.072-.171s.023-.135.023-.208zm1.584.379V7.11h.253v1.47h-.241l-.012-.34zm.047-.31.105-.003c0 .098-.01.188-.031.272s-.053.154-.098.215-.105.108-.178.143a.635.635 0 0 1-.268.05c-.072 0-.137-.01-.197-.031s-.11-.053-.152-.096-.076-.1-.099-.17a.81.81 0 0 1-.034-.251v-.948h.251v.951c0 .066.007.121.022.164s.036.077.061.102c.026.024.055.042.087.052s.066.015.101.015c.107 0 .192-.02.254-.061s.107-.097.134-.167a.634.634 0 0 0 .042-.235zm1.315-.82v.193h-.795V7.11h.795zm-.525-.358h.251v1.463c0 .05.008.087.023.113s.035.042.06.05a.252.252 0 0 0 .079.012c.021 0 .043-.002.065-.005s.041-.008.053-.011l.001.205a.748.748 0 0 1-.194.027c-.062 0-.118-.012-.17-.037s-.093-.065-.124-.122a.513.513 0 0 1-.045-.234V6.751z" opacity=".4" style="fill:var(--color1, #2e2f42)"/>
      <path fill="#8e8f99" d="M1.424 1.922h.261c-.014.125-.049.237-.107.336s-.14.177-.246.235a.83.83 0 0 1-.397.086c-.116 0-.221-.022-.317-.065s-.175-.105-.243-.185c-.068-.081-.12-.177-.158-.289s-.054-.239-.054-.378v-.197c0-.139.018-.264.054-.376s.09-.21.159-.291C.446.717.53.655.627.612S.835.547.957.547c.149 0 .276.028.379.084s.183.134.24.234a.833.833 0 0 1 .107.344h-.261c-.013-.092-.036-.172-.071-.238S1.268.852 1.204.816 1.058.762.955.762C.867.762.79.779.723.812S.601.893.556.955c-.044.062-.078.135-.101.221s-.034.182-.034.287v.2c0 .097.01.188.03.273s.052.16.094.224.095.115.159.152c.064.036.14.054.228.054.111 0 .2-.018.266-.053s.116-.086.149-.152a.766.766 0 0 0 .073-.238zm.625-.09v-.031c0-.106.015-.204.046-.295s.075-.171.133-.238c.058-.068.128-.12.211-.158s.175-.057.277-.057c.103 0 .196.019.279.057s.154.09.212.158c.059.067.104.146.135.238s.046.189.046.295v.031c0 .106-.015.204-.046.295s-.076.17-.135.238a.613.613 0 0 1-.488.214.678.678 0 0 1-.279-.056.637.637 0 0 1-.345-.396.908.908 0 0 1-.046-.295zm.251-.031v.031c0 .073.009.143.026.208s.043.121.077.171c.035.05.079.089.132.118s.114.042.183.042c.069 0 .129-.014.181-.042s.096-.068.13-.118.06-.107.077-.171a.78.78 0 0 0 .027-.208v-.031c0-.072-.009-.141-.027-.205s-.043-.123-.079-.173a.366.366 0 0 0-.312-.163c-.069 0-.13.014-.182.043s-.095.069-.13.12c-.034.05-.06.107-.077.173s-.026.133-.026.205zm1.764-.428v1.178h-.253v-1.47h.239l.014.292zm-.052.387-.117-.004c.001-.101.014-.193.039-.279s.063-.161.113-.224.112-.112.186-.147a.597.597 0 0 1 .258-.053c.069 0 .132.01.19.03a.395.395 0 0 1 .25.251.687.687 0 0 1 .035.236v.98h-.251v-.967c0-.077-.013-.139-.039-.185s-.062-.08-.109-.101a.387.387 0 0 0-.166-.033c-.074 0-.136.013-.186.039s-.09.063-.12.109-.052.099-.065.159-.019.121-.019.188zm.952-.139-.168.052c.001-.081.014-.158.039-.232s.064-.14.113-.198c.05-.058.111-.104.183-.137s.155-.052.249-.052c.079 0 .149.01.209.031s.113.053.155.096c.043.043.075.097.096.164s.033.147.033.239v.966H5.62v-.969c0-.082-.013-.146-.039-.192s-.062-.078-.109-.096a.433.433 0 0 0-.313 0 .293.293 0 0 0-.107.079.356.356 0 0 0-.089.249zm1.651-.248v1.178h-.253v-1.47h.239l.014.292zm-.051.387-.117-.004c.001-.101.014-.193.039-.279s.063-.161.113-.224.112-.112.186-.147a.597.597 0 0 1 .258-.053c.069 0 .132.01.19.03a.395.395 0 0 1 .25.251.687.687 0 0 1 .035.236v.98h-.251v-.967c0-.077-.013-.139-.039-.185s-.062-.08-.109-.101a.387.387 0 0 0-.166-.033c-.074 0-.136.013-.186.039s-.09.063-.12.109-.052.099-.065.159-.019.121-.019.188zm.952-.139-.168.052c.001-.081.014-.158.039-.232s.064-.14.113-.198c.05-.058.111-.104.183-.137s.155-.052.249-.052c.079 0 .149.01.209.031a.398.398 0 0 1 .252.26.77.77 0 0 1 .033.239v.966h-.253v-.969c0-.082-.013-.146-.039-.192s-.062-.078-.109-.096a.433.433 0 0 0-.313 0 .293.293 0 0 0-.107.079.356.356 0 0 0-.089.249zm2.011.957c-.102 0-.195-.017-.279-.052s-.154-.085-.213-.148c-.059-.063-.104-.139-.136-.226s-.048-.182-.048-.285V1.81c0-.12.018-.226.053-.319s.083-.174.144-.239a.617.617 0 0 1 .446-.198c.105 0 .196.018.272.054s.14.087.189.152c.049.064.085.14.109.228s.035.182.035.285v.113H9.001v-.205h.846v-.019c-.004-.065-.017-.129-.041-.19s-.059-.112-.109-.152-.118-.06-.204-.06a.337.337 0 0 0-.282.143.522.522 0 0 0-.08.173.873.873 0 0 0-.029.235v.057c0 .07.009.135.029.197s.048.114.086.16a.406.406 0 0 0 .322.148c.089 0 .164-.018.226-.054s.116-.085.162-.145l.152.121c-.032.048-.072.094-.121.137s-.109.079-.181.106a.702.702 0 0 1-.251.041zm1.228-1.184V2.55h-.251V1.08h.238l.014.314zm-.06.366-.105-.004c.001-.101.016-.193.045-.279s.07-.161.122-.224a.55.55 0 0 1 .431-.2c.072 0 .138.01.196.03a.371.371 0 0 1 .243.258.8.8 0 0 1 .033.246v.963h-.253v-.966c0-.077-.011-.139-.034-.185s-.056-.081-.099-.102a.35.35 0 0 0-.16-.033.371.371 0 0 0-.303.148.529.529 0 0 0-.086.159.579.579 0 0 0-.03.188zm2.073-.679v.193h-.795v-.193h.795zm-.525-.358h.251v1.463c0 .05.008.087.023.113s.035.042.06.05a.252.252 0 0 0 .079.012c.021 0 .043-.002.065-.005s.041-.008.053-.011l.001.205a.748.748 0 0 1-.194.028c-.062 0-.118-.012-.17-.037s-.093-.065-.124-.122a.513.513 0 0 1-.045-.234V.723z" style="fill:var(--color2, #8e8f99)"/>
    </symbol>
    <symbol id="icon-emailblack" viewBox="0 0 24 32">
      <path d="M20 8H4c-1.1 0-1.99.9-1.99 2L2 22c0 1.1.9 2 2 2h16c1.1 0 2-.9 2-2V10c0-1.1-.9-2-2-2zm-.4 4.25-7.07 4.42c-.32.2-.74.2-1.06 0L4.4 12.25a.85.85 0 1 1 .9-1.44L12 15l6.7-4.19a.85.85 0 1 1 .9 1.44z"/>
    </symbol>
    <symbol id="icon-phoneblack" viewBox="0 0 24 32">
      <path d="m19.635 18.487-2.451-.28a1.92 1.92 0 0 0-1.582.55l-1.775 1.775a14.514 14.514 0 0 1-6.359-6.359l1.785-1.785c.415-.415.618-.994.55-1.582l-.28-2.432a1.931 1.931 0 0 0-1.92-1.708H5.934c-1.09 0-1.997.907-1.93 1.997.511 8.24 7.102 14.821 15.332 15.332 1.09.068 1.997-.839 1.997-1.93v-1.669a1.913 1.913 0 0 0-1.698-1.911z"/>
    </symbol>
    <symbol id="icon-frame" viewBox="0 0 32 32">
      <path fill="#4d5ae5" d="M12 16c2.21 0 4-1.79 4-4s-1.79-4-4-4-4 1.79-4 4 1.79 4 4 4zm0 2c-2.67 0-8 1.34-8 4v1c0 .55.45 1 1 1h14c.55 0 1-.45 1-1v-1c0-2.66-5.33-4-8-4z" style="fill:var(--color3, #4d5ae5)"/>
      <path fill="none" stroke="#2e2f42" stroke-linecap="round" stroke-width="1.667" d="M30.167 4.833v22.333" style="stroke:var(--color1, #2e2f42)"/>
    </symbol>
  </defs>
</svg>
